<mxfile host="app.diagrams.net" modified="2022-11-06T12:12:33.957Z" agent="5.0 (Windows NT 10.0; Win64; x64) AppleWebKit/537.36 (KHTML, like Gecko) Chrome/107.0.0.0 Safari/537.36" etag="bPE0CeMnvS-nGvMKwSOb" version="20.5.2" type="github">
  <diagram id="-I7CZAZbyV9DtBECHSoT" name="Page-1">
    <mxGraphModel dx="1038" dy="1682" grid="1" gridSize="10" guides="1" tooltips="1" connect="1" arrows="1" fold="1" page="1" pageScale="1" pageWidth="827" pageHeight="1169" background="#F1FAEE" math="0" shadow="0">
      <root>
        <mxCell id="0" />
        <mxCell id="1" parent="0" />
        <mxCell id="g_14Ecix3spJ8cw0UocM-1" value="" style="ellipse;html=1;shape=startState;rounded=1;fillColor=#A8DADC;strokeColor=#457B9D;fontColor=#1D3557;" parent="1" vertex="1">
          <mxGeometry x="504" y="-1168" width="30" height="30" as="geometry" />
        </mxCell>
        <mxCell id="g_14Ecix3spJ8cw0UocM-2" value="" style="edgeStyle=orthogonalEdgeStyle;html=1;verticalAlign=bottom;endArrow=open;endSize=8;rounded=1;entryX=0.463;entryY=0.006;entryDx=0;entryDy=0;entryPerimeter=0;labelBackgroundColor=#F1FAEE;strokeColor=#457B9D;fontColor=#1D3557;" parent="1" source="g_14Ecix3spJ8cw0UocM-1" target="g_14Ecix3spJ8cw0UocM-5" edge="1">
          <mxGeometry relative="1" as="geometry">
            <mxPoint x="415" y="-1120" as="targetPoint" />
          </mxGeometry>
        </mxCell>
        <mxCell id="g_14Ecix3spJ8cw0UocM-3" style="edgeStyle=orthogonalEdgeStyle;orthogonalLoop=1;jettySize=auto;html=1;rounded=1;strokeWidth=2;endArrow=none;endFill=0;entryX=0;entryY=0.5;entryDx=0;entryDy=0;startArrow=classic;startFill=1;exitX=0;exitY=0.5;exitDx=0;exitDy=0;labelBackgroundColor=#F1FAEE;strokeColor=#457B9D;fontColor=#1D3557;" parent="1" source="g_14Ecix3spJ8cw0UocM-4" target="g_14Ecix3spJ8cw0UocM-144" edge="1">
          <mxGeometry relative="1" as="geometry">
            <mxPoint x="390" y="-970" as="targetPoint" />
            <Array as="points">
              <mxPoint x="40" y="-1016" />
              <mxPoint x="40" y="-920" />
              <mxPoint x="400" y="-920" />
              <mxPoint x="400" y="-976" />
            </Array>
            <mxPoint x="40" y="-1080" as="sourcePoint" />
          </mxGeometry>
        </mxCell>
        <mxCell id="p_IL2DqyqRA-ms2kH8pK-1" style="edgeStyle=orthogonalEdgeStyle;rounded=0;orthogonalLoop=1;jettySize=auto;html=1;entryX=0;entryY=0.75;entryDx=0;entryDy=0;startArrow=none;startFill=0;endArrow=classic;endFill=1;strokeWidth=2;labelBackgroundColor=#F1FAEE;strokeColor=#457B9D;fontColor=#1D3557;" parent="1" source="g_14Ecix3spJ8cw0UocM-4" target="g_14Ecix3spJ8cw0UocM-143" edge="1">
          <mxGeometry relative="1" as="geometry" />
        </mxCell>
        <mxCell id="g_14Ecix3spJ8cw0UocM-4" value="sign in" style="whiteSpace=wrap;html=1;rounded=1;fillColor=#A8DADC;strokeColor=#457B9D;fontColor=#1D3557;" parent="1" vertex="1">
          <mxGeometry x="88" y="-1032" width="56" height="32" as="geometry" />
        </mxCell>
        <mxCell id="g_14Ecix3spJ8cw0UocM-5" value="Dashboard" style="whiteSpace=wrap;html=1;rounded=1;fillColor=#A8DADC;strokeColor=#457B9D;fontColor=#1D3557;" parent="1" vertex="1">
          <mxGeometry x="472" y="-1120" width="101" height="32" as="geometry" />
        </mxCell>
        <mxCell id="g_14Ecix3spJ8cw0UocM-7" value="already have an acciunt ?" style="text;html=1;resizable=0;autosize=1;align=center;verticalAlign=middle;points=[];fillColor=none;strokeColor=none;rounded=1;fontColor=#1D3557;" parent="1" vertex="1">
          <mxGeometry x="120" y="-1088" width="160" height="32" as="geometry" />
        </mxCell>
        <mxCell id="g_14Ecix3spJ8cw0UocM-8" value="" style="endArrow=classic;html=1;exitX=0.5;exitY=1;exitDx=0;exitDy=0;rounded=1;labelBackgroundColor=#F1FAEE;strokeColor=#457B9D;fontColor=#1D3557;" parent="1" source="g_14Ecix3spJ8cw0UocM-4" edge="1">
          <mxGeometry width="50" height="50" relative="1" as="geometry">
            <mxPoint x="104" y="-984" as="sourcePoint" />
            <mxPoint x="116" y="-984" as="targetPoint" />
            <Array as="points" />
          </mxGeometry>
        </mxCell>
        <mxCell id="g_14Ecix3spJ8cw0UocM-9" value="forgot password" style="whiteSpace=wrap;html=1;rounded=1;fillColor=#A8DADC;strokeColor=#457B9D;fontColor=#1D3557;" parent="1" vertex="1">
          <mxGeometry x="64" y="-984" width="96" height="40" as="geometry" />
        </mxCell>
        <mxCell id="g_14Ecix3spJ8cw0UocM-10" value="" style="endArrow=classic;html=1;rounded=1;labelBackgroundColor=#F1FAEE;strokeColor=#457B9D;fontColor=#1D3557;" parent="1" edge="1">
          <mxGeometry width="50" height="50" relative="1" as="geometry">
            <mxPoint x="160" y="-960" as="sourcePoint" />
            <mxPoint x="200" y="-960" as="targetPoint" />
          </mxGeometry>
        </mxCell>
        <mxCell id="g_14Ecix3spJ8cw0UocM-11" style="edgeStyle=orthogonalEdgeStyle;orthogonalLoop=1;jettySize=auto;html=1;exitX=1;exitY=0.5;exitDx=0;exitDy=0;entryX=1;entryY=0.75;entryDx=0;entryDy=0;rounded=1;strokeWidth=2;labelBackgroundColor=#F1FAEE;strokeColor=#457B9D;fontColor=#1D3557;" parent="1" source="g_14Ecix3spJ8cw0UocM-12" target="g_14Ecix3spJ8cw0UocM-4" edge="1">
          <mxGeometry relative="1" as="geometry" />
        </mxCell>
        <mxCell id="g_14Ecix3spJ8cw0UocM-12" value="change password" style="whiteSpace=wrap;html=1;fillStyle=auto;rounded=1;fillColor=#A8DADC;strokeColor=#457B9D;fontColor=#1D3557;" parent="1" vertex="1">
          <mxGeometry x="200" y="-984" width="104" height="40" as="geometry" />
        </mxCell>
        <mxCell id="g_14Ecix3spJ8cw0UocM-17" value="" style="endArrow=none;html=1;strokeWidth=4;rounded=1;labelBackgroundColor=#F1FAEE;strokeColor=#457B9D;fontColor=#1D3557;" parent="1" edge="1">
          <mxGeometry relative="1" as="geometry">
            <mxPoint x="8" y="-864" as="sourcePoint" />
            <mxPoint x="820" y="-860" as="targetPoint" />
          </mxGeometry>
        </mxCell>
        <object label="z" id="g_14Ecix3spJ8cw0UocM-18">
          <mxCell style="swimlane;startSize=0;strokeWidth=3;rounded=1;fillColor=#A8DADC;strokeColor=#457B9D;fontColor=#1D3557;" parent="1" vertex="1">
            <mxGeometry x="4" y="-822" width="816" height="802" as="geometry" />
          </mxCell>
        </object>
        <mxCell id="g_14Ecix3spJ8cw0UocM-19" value="Admin" style="text;html=1;resizable=0;autosize=1;align=center;verticalAlign=middle;points=[];strokeWidth=2;shadow=0;glass=0;fontStyle=1;labelBorderColor=none;spacingTop=3;fontSize=18;rounded=1;fontColor=#1D3557;" parent="g_14Ecix3spJ8cw0UocM-18" vertex="1">
          <mxGeometry x="454" y="-6" width="80" height="40" as="geometry" />
        </mxCell>
        <mxCell id="g_14Ecix3spJ8cw0UocM-20" value="" style="endArrow=none;html=1;strokeWidth=2;rounded=1;labelBackgroundColor=#F1FAEE;strokeColor=#457B9D;fontColor=#1D3557;" parent="g_14Ecix3spJ8cw0UocM-18" target="g_14Ecix3spJ8cw0UocM-18" edge="1">
          <mxGeometry width="50" height="50" relative="1" as="geometry">
            <mxPoint x="2" y="31" as="sourcePoint" />
            <mxPoint x="992" y="32" as="targetPoint" />
          </mxGeometry>
        </mxCell>
        <mxCell id="g_14Ecix3spJ8cw0UocM-21" value="" style="edgeStyle=none;orthogonalLoop=1;jettySize=auto;html=1;strokeWidth=2;fontSize=19;rounded=1;labelBackgroundColor=#F1FAEE;strokeColor=#457B9D;fontColor=#1D3557;" parent="g_14Ecix3spJ8cw0UocM-18" edge="1">
          <mxGeometry width="80" relative="1" as="geometry">
            <mxPoint x="496" y="-38" as="sourcePoint" />
            <mxPoint x="494" y="2" as="targetPoint" />
            <Array as="points" />
          </mxGeometry>
        </mxCell>
        <mxCell id="g_14Ecix3spJ8cw0UocM-22" value="" style="line;strokeWidth=2;html=1;labelBackgroundColor=#F1FAEE;fillColor=#A8DADC;strokeColor=#457B9D;fontColor=#1D3557;" parent="g_14Ecix3spJ8cw0UocM-18" vertex="1">
          <mxGeometry y="24" width="810" height="10" as="geometry" />
        </mxCell>
        <mxCell id="g_14Ecix3spJ8cw0UocM-23" value="" style="line;strokeWidth=4;html=1;shadow=0;glass=0;labelBackgroundColor=none;labelBorderColor=none;fontFamily=Times New Roman;fontSize=18;rounded=1;fillColor=#A8DADC;strokeColor=#457B9D;fontColor=#1D3557;" parent="g_14Ecix3spJ8cw0UocM-18" vertex="1">
          <mxGeometry x="48" y="702" width="734" height="8" as="geometry" />
        </mxCell>
        <mxCell id="g_14Ecix3spJ8cw0UocM-24" value="Admin Home Page" style="whiteSpace=wrap;html=1;rounded=1;fillColor=#A8DADC;strokeColor=#457B9D;fontColor=#1D3557;" parent="g_14Ecix3spJ8cw0UocM-18" vertex="1">
          <mxGeometry x="96" y="34" width="96" height="40" as="geometry" />
        </mxCell>
        <mxCell id="g_14Ecix3spJ8cw0UocM-25" value="" style="edgeStyle=none;orthogonalLoop=1;jettySize=auto;html=1;strokeWidth=2;fontSize=19;rounded=1;labelBackgroundColor=#F1FAEE;strokeColor=#457B9D;fontColor=#1D3557;" parent="g_14Ecix3spJ8cw0UocM-18" edge="1">
          <mxGeometry width="80" relative="1" as="geometry">
            <mxPoint x="144" y="74" as="sourcePoint" />
            <mxPoint x="144" y="98" as="targetPoint" />
            <Array as="points" />
          </mxGeometry>
        </mxCell>
        <mxCell id="g_14Ecix3spJ8cw0UocM-26" value="" style="line;strokeWidth=4;html=1;shadow=0;glass=0;labelBackgroundColor=none;labelBorderColor=none;fontFamily=Times New Roman;fontSize=18;rounded=1;fillColor=#A8DADC;strokeColor=#457B9D;fontColor=#1D3557;" parent="g_14Ecix3spJ8cw0UocM-18" vertex="1">
          <mxGeometry x="32" y="90" width="272" height="10" as="geometry" />
        </mxCell>
        <mxCell id="g_14Ecix3spJ8cw0UocM-27" value="" style="edgeStyle=none;orthogonalLoop=1;jettySize=auto;html=1;strokeWidth=2;fontSize=19;exitX=0.076;exitY=0.78;exitDx=0;exitDy=0;exitPerimeter=0;rounded=1;labelBackgroundColor=#F1FAEE;strokeColor=#457B9D;fontColor=#1D3557;" parent="g_14Ecix3spJ8cw0UocM-18" edge="1">
          <mxGeometry width="80" relative="1" as="geometry">
            <mxPoint x="56.42000000000007" y="98" as="sourcePoint" />
            <mxPoint x="56.003999999999905" y="122.20000000000005" as="targetPoint" />
            <Array as="points" />
          </mxGeometry>
        </mxCell>
        <mxCell id="g_14Ecix3spJ8cw0UocM-28" value="" style="edgeStyle=none;orthogonalLoop=1;jettySize=auto;html=1;strokeWidth=2;fontSize=19;rounded=1;entryX=0.505;entryY=-0.006;entryDx=0;entryDy=0;entryPerimeter=0;labelBackgroundColor=#F1FAEE;strokeColor=#457B9D;fontColor=#1D3557;" parent="g_14Ecix3spJ8cw0UocM-18" target="g_14Ecix3spJ8cw0UocM-30" edge="1">
          <mxGeometry width="80" relative="1" as="geometry">
            <mxPoint x="296" y="90" as="sourcePoint" />
            <mxPoint x="271.99799999999993" y="958.2" as="targetPoint" />
            <Array as="points" />
          </mxGeometry>
        </mxCell>
        <mxCell id="g_14Ecix3spJ8cw0UocM-29" value="sidebar" style="whiteSpace=wrap;html=1;rounded=1;fillColor=#A8DADC;strokeColor=#457B9D;fontColor=#1D3557;" parent="g_14Ecix3spJ8cw0UocM-18" vertex="1">
          <mxGeometry x="24" y="122" width="64" height="32" as="geometry" />
        </mxCell>
        <mxCell id="g_14Ecix3spJ8cw0UocM-30" value="contact infromation" style="whiteSpace=wrap;html=1;rounded=1;fillColor=#A8DADC;strokeColor=#457B9D;fontColor=#1D3557;" parent="g_14Ecix3spJ8cw0UocM-18" vertex="1">
          <mxGeometry x="256" y="122" width="80" height="32" as="geometry" />
        </mxCell>
        <mxCell id="g_14Ecix3spJ8cw0UocM-31" value="add sub/report cat" style="whiteSpace=wrap;html=1;rounded=1;fillColor=#A8DADC;strokeColor=#457B9D;fontColor=#1D3557;" parent="g_14Ecix3spJ8cw0UocM-18" vertex="1">
          <mxGeometry x="110" y="226" width="82" height="32" as="geometry" />
        </mxCell>
        <mxCell id="g_14Ecix3spJ8cw0UocM-32" value="" style="line;strokeWidth=4;html=1;shadow=0;glass=0;labelBackgroundColor=none;labelBorderColor=none;fontFamily=Times New Roman;fontSize=18;rounded=1;fillColor=#A8DADC;strokeColor=#457B9D;fontColor=#1D3557;" parent="g_14Ecix3spJ8cw0UocM-18" vertex="1">
          <mxGeometry x="24" y="186" width="796" height="10" as="geometry" />
        </mxCell>
        <mxCell id="g_14Ecix3spJ8cw0UocM-33" value="add brand" style="whiteSpace=wrap;html=1;rounded=1;arcSize=19;fillColor=#A8DADC;strokeColor=#457B9D;fontColor=#1D3557;" parent="g_14Ecix3spJ8cw0UocM-18" vertex="1">
          <mxGeometry x="344" y="226" width="56" height="32" as="geometry" />
        </mxCell>
        <mxCell id="g_14Ecix3spJ8cw0UocM-34" value="navbar" style="whiteSpace=wrap;html=1;rounded=1;fillColor=#A8DADC;strokeColor=#457B9D;fontColor=#1D3557;" parent="g_14Ecix3spJ8cw0UocM-18" vertex="1">
          <mxGeometry x="104" y="122" width="56" height="32" as="geometry" />
        </mxCell>
        <mxCell id="g_14Ecix3spJ8cw0UocM-35" value="update password" style="whiteSpace=wrap;html=1;fillStyle=auto;rounded=1;fillColor=#A8DADC;strokeColor=#457B9D;fontColor=#1D3557;" parent="g_14Ecix3spJ8cw0UocM-18" vertex="1">
          <mxGeometry x="168" y="122" width="72" height="32" as="geometry" />
        </mxCell>
        <mxCell id="g_14Ecix3spJ8cw0UocM-36" value="" style="edgeStyle=none;orthogonalLoop=1;jettySize=auto;html=1;strokeWidth=2;fontSize=19;exitX=0.076;exitY=0.78;exitDx=0;exitDy=0;exitPerimeter=0;rounded=1;labelBackgroundColor=#F1FAEE;strokeColor=#457B9D;fontColor=#1D3557;" parent="g_14Ecix3spJ8cw0UocM-18" edge="1">
          <mxGeometry width="80" relative="1" as="geometry">
            <mxPoint x="120.42000000000007" y="98" as="sourcePoint" />
            <mxPoint x="120.0039999999999" y="122.20000000000005" as="targetPoint" />
            <Array as="points" />
          </mxGeometry>
        </mxCell>
        <mxCell id="g_14Ecix3spJ8cw0UocM-37" value="" style="edgeStyle=none;orthogonalLoop=1;jettySize=auto;html=1;strokeWidth=2;fontSize=19;exitX=0.076;exitY=0.78;exitDx=0;exitDy=0;exitPerimeter=0;rounded=1;labelBackgroundColor=#F1FAEE;strokeColor=#457B9D;fontColor=#1D3557;" parent="g_14Ecix3spJ8cw0UocM-18" edge="1">
          <mxGeometry width="80" relative="1" as="geometry">
            <mxPoint x="200" y="98" as="sourcePoint" />
            <mxPoint x="199.58399999999983" y="122.20000000000005" as="targetPoint" />
            <Array as="points" />
          </mxGeometry>
        </mxCell>
        <mxCell id="g_14Ecix3spJ8cw0UocM-38" value="seller" style="whiteSpace=wrap;html=1;rounded=1;fillColor=#A8DADC;strokeColor=#457B9D;fontColor=#1D3557;" parent="g_14Ecix3spJ8cw0UocM-18" vertex="1">
          <mxGeometry x="200" y="226" width="56" height="32" as="geometry" />
        </mxCell>
        <mxCell id="g_14Ecix3spJ8cw0UocM-39" value="products" style="whiteSpace=wrap;html=1;rounded=1;fillColor=#A8DADC;strokeColor=#457B9D;fontColor=#1D3557;" parent="g_14Ecix3spJ8cw0UocM-18" vertex="1">
          <mxGeometry x="408" y="226" width="80" height="32" as="geometry" />
        </mxCell>
        <mxCell id="g_14Ecix3spJ8cw0UocM-40" value="" style="edgeStyle=none;orthogonalLoop=1;jettySize=auto;html=1;strokeWidth=2;fontSize=19;rounded=1;labelBackgroundColor=#F1FAEE;strokeColor=#457B9D;fontColor=#1D3557;" parent="g_14Ecix3spJ8cw0UocM-18" edge="1">
          <mxGeometry width="80" relative="1" as="geometry">
            <mxPoint x="296.32000000000016" y="194" as="sourcePoint" />
            <mxPoint x="296" y="227" as="targetPoint" />
            <Array as="points">
              <mxPoint x="296.0000000000001" y="211" />
            </Array>
          </mxGeometry>
        </mxCell>
        <mxCell id="g_14Ecix3spJ8cw0UocM-41" value="" style="edgeStyle=none;orthogonalLoop=1;jettySize=auto;html=1;strokeWidth=2;fontSize=19;rounded=1;labelBackgroundColor=#F1FAEE;strokeColor=#457B9D;fontColor=#1D3557;" parent="g_14Ecix3spJ8cw0UocM-18" edge="1">
          <mxGeometry width="80" relative="1" as="geometry">
            <mxPoint x="368" y="194" as="sourcePoint" />
            <mxPoint x="367.6800000000003" y="227" as="targetPoint" />
            <Array as="points">
              <mxPoint x="367.68000000000006" y="211" />
            </Array>
          </mxGeometry>
        </mxCell>
        <mxCell id="g_14Ecix3spJ8cw0UocM-42" value="" style="edgeStyle=none;orthogonalLoop=1;jettySize=auto;html=1;strokeWidth=2;fontSize=19;rounded=1;labelBackgroundColor=#F1FAEE;strokeColor=#457B9D;fontColor=#1D3557;" parent="g_14Ecix3spJ8cw0UocM-18" edge="1">
          <mxGeometry width="80" relative="1" as="geometry">
            <mxPoint x="432" y="194" as="sourcePoint" />
            <mxPoint x="431.6800000000003" y="227" as="targetPoint" />
            <Array as="points">
              <mxPoint x="431.68000000000006" y="211" />
            </Array>
          </mxGeometry>
        </mxCell>
        <mxCell id="g_14Ecix3spJ8cw0UocM-43" value="customer" style="whiteSpace=wrap;html=1;rounded=1;fillColor=#A8DADC;strokeColor=#457B9D;fontColor=#1D3557;" parent="g_14Ecix3spJ8cw0UocM-18" vertex="1">
          <mxGeometry x="24" y="226" width="72" height="32" as="geometry" />
        </mxCell>
        <mxCell id="g_14Ecix3spJ8cw0UocM-44" value="update personal info" style="whiteSpace=wrap;html=1;rounded=1;fillColor=#A8DADC;strokeColor=#457B9D;fontColor=#1D3557;" parent="g_14Ecix3spJ8cw0UocM-18" vertex="1">
          <mxGeometry x="264" y="226" width="72" height="32" as="geometry" />
        </mxCell>
        <mxCell id="g_14Ecix3spJ8cw0UocM-45" value="" style="line;strokeWidth=4;html=1;shadow=0;glass=0;labelBackgroundColor=none;labelBorderColor=none;fontFamily=Times New Roman;fontSize=18;rounded=1;fillColor=#A8DADC;strokeColor=#457B9D;fontColor=#1D3557;" parent="g_14Ecix3spJ8cw0UocM-18" vertex="1">
          <mxGeometry x="48" y="290" width="120" height="8" as="geometry" />
        </mxCell>
        <mxCell id="g_14Ecix3spJ8cw0UocM-46" value="" style="edgeStyle=none;orthogonalLoop=1;jettySize=auto;html=1;strokeWidth=2;fontSize=19;rounded=1;labelBackgroundColor=#F1FAEE;strokeColor=#457B9D;fontColor=#1D3557;" parent="g_14Ecix3spJ8cw0UocM-18" edge="1">
          <mxGeometry width="80" relative="1" as="geometry">
            <mxPoint x="232" y="194" as="sourcePoint" />
            <mxPoint x="231.67999999999984" y="227" as="targetPoint" />
            <Array as="points">
              <mxPoint x="231.67999999999995" y="211" />
            </Array>
          </mxGeometry>
        </mxCell>
        <mxCell id="g_14Ecix3spJ8cw0UocM-47" value="" style="edgeStyle=none;orthogonalLoop=1;jettySize=auto;html=1;strokeWidth=2;fontSize=19;rounded=1;labelBackgroundColor=#F1FAEE;strokeColor=#457B9D;fontColor=#1D3557;" parent="g_14Ecix3spJ8cw0UocM-18" edge="1">
          <mxGeometry width="80" relative="1" as="geometry">
            <mxPoint x="160.32000000000016" y="194" as="sourcePoint" />
            <mxPoint x="160" y="227" as="targetPoint" />
            <Array as="points">
              <mxPoint x="160" y="211" />
            </Array>
          </mxGeometry>
        </mxCell>
        <mxCell id="g_14Ecix3spJ8cw0UocM-48" value="" style="edgeStyle=none;orthogonalLoop=1;jettySize=auto;html=1;strokeWidth=2;fontSize=19;rounded=1;labelBackgroundColor=#F1FAEE;strokeColor=#457B9D;fontColor=#1D3557;" parent="g_14Ecix3spJ8cw0UocM-18" edge="1">
          <mxGeometry width="80" relative="1" as="geometry">
            <mxPoint x="80.32000000000016" y="194" as="sourcePoint" />
            <mxPoint x="80" y="227" as="targetPoint" />
            <Array as="points">
              <mxPoint x="80" y="211" />
            </Array>
          </mxGeometry>
        </mxCell>
        <mxCell id="g_14Ecix3spJ8cw0UocM-49" value="regular customer" style="whiteSpace=wrap;html=1;rounded=1;fillColor=#A8DADC;strokeColor=#457B9D;fontColor=#1D3557;" parent="g_14Ecix3spJ8cw0UocM-18" vertex="1">
          <mxGeometry x="120" y="322" width="64" height="32" as="geometry" />
        </mxCell>
        <mxCell id="g_14Ecix3spJ8cw0UocM-50" value="block customer list" style="whiteSpace=wrap;html=1;rounded=1;fillColor=#A8DADC;strokeColor=#457B9D;fontColor=#1D3557;" parent="g_14Ecix3spJ8cw0UocM-18" vertex="1">
          <mxGeometry x="40" y="322" width="72" height="32" as="geometry" />
        </mxCell>
        <mxCell id="g_14Ecix3spJ8cw0UocM-51" value="regular seller" style="whiteSpace=wrap;html=1;rounded=1;fillColor=#A8DADC;strokeColor=#457B9D;fontColor=#1D3557;" parent="g_14Ecix3spJ8cw0UocM-18" vertex="1">
          <mxGeometry x="272" y="322" width="72" height="32" as="geometry" />
        </mxCell>
        <mxCell id="g_14Ecix3spJ8cw0UocM-52" value="block seller list" style="whiteSpace=wrap;html=1;rounded=1;fillColor=#A8DADC;strokeColor=#457B9D;fontColor=#1D3557;" parent="g_14Ecix3spJ8cw0UocM-18" vertex="1">
          <mxGeometry x="200" y="322" width="64" height="32" as="geometry" />
        </mxCell>
        <mxCell id="g_14Ecix3spJ8cw0UocM-53" value="" style="line;strokeWidth=4;html=1;shadow=0;glass=0;labelBackgroundColor=none;labelBorderColor=none;fontFamily=Times New Roman;fontSize=18;rounded=1;fillColor=#A8DADC;strokeColor=#457B9D;fontColor=#1D3557;" parent="g_14Ecix3spJ8cw0UocM-18" vertex="1">
          <mxGeometry x="208" y="290" width="120" height="8" as="geometry" />
        </mxCell>
        <mxCell id="g_14Ecix3spJ8cw0UocM-54" value="" style="line;strokeWidth=4;html=1;shadow=0;glass=0;labelBackgroundColor=none;labelBorderColor=none;fontFamily=Times New Roman;fontSize=18;rounded=1;fillColor=#A8DADC;strokeColor=#457B9D;fontColor=#1D3557;" parent="g_14Ecix3spJ8cw0UocM-18" vertex="1">
          <mxGeometry x="464" y="506" width="352" height="8" as="geometry" />
        </mxCell>
        <mxCell id="g_14Ecix3spJ8cw0UocM-55" value="regular products" style="whiteSpace=wrap;html=1;rounded=1;fillColor=#A8DADC;strokeColor=#457B9D;fontColor=#1D3557;" parent="g_14Ecix3spJ8cw0UocM-18" vertex="1">
          <mxGeometry x="500" y="542" width="72" height="32" as="geometry" />
        </mxCell>
        <mxCell id="g_14Ecix3spJ8cw0UocM-56" value="block products list" style="whiteSpace=wrap;html=1;rounded=1;fillColor=#A8DADC;strokeColor=#457B9D;fontColor=#1D3557;" parent="g_14Ecix3spJ8cw0UocM-18" vertex="1">
          <mxGeometry x="720" y="542" width="64" height="48" as="geometry" />
        </mxCell>
        <mxCell id="g_14Ecix3spJ8cw0UocM-57" value="" style="edgeStyle=none;orthogonalLoop=1;jettySize=auto;html=1;strokeWidth=2;fontSize=19;rounded=1;labelBackgroundColor=#F1FAEE;strokeColor=#457B9D;fontColor=#1D3557;" parent="g_14Ecix3spJ8cw0UocM-18" edge="1">
          <mxGeometry width="80" relative="1" as="geometry">
            <mxPoint x="72" y="258" as="sourcePoint" />
            <mxPoint x="71.67999999999984" y="291" as="targetPoint" />
            <Array as="points">
              <mxPoint x="71.67999999999984" y="275" />
            </Array>
          </mxGeometry>
        </mxCell>
        <mxCell id="g_14Ecix3spJ8cw0UocM-58" value="" style="edgeStyle=none;orthogonalLoop=1;jettySize=auto;html=1;strokeWidth=2;fontSize=19;rounded=1;labelBackgroundColor=#F1FAEE;strokeColor=#457B9D;fontColor=#1D3557;" parent="g_14Ecix3spJ8cw0UocM-18" edge="1">
          <mxGeometry width="80" relative="1" as="geometry">
            <mxPoint x="80" y="298" as="sourcePoint" />
            <mxPoint x="80" y="323" as="targetPoint" />
            <Array as="points">
              <mxPoint x="79.99999999999989" y="307" />
            </Array>
          </mxGeometry>
        </mxCell>
        <mxCell id="g_14Ecix3spJ8cw0UocM-59" value="" style="edgeStyle=none;orthogonalLoop=1;jettySize=auto;html=1;strokeWidth=2;fontSize=19;rounded=1;labelBackgroundColor=#F1FAEE;strokeColor=#457B9D;fontColor=#1D3557;" parent="g_14Ecix3spJ8cw0UocM-18" edge="1">
          <mxGeometry width="80" relative="1" as="geometry">
            <mxPoint x="144" y="298" as="sourcePoint" />
            <mxPoint x="144" y="323" as="targetPoint" />
            <Array as="points">
              <mxPoint x="143.9999999999999" y="307" />
            </Array>
          </mxGeometry>
        </mxCell>
        <mxCell id="g_14Ecix3spJ8cw0UocM-60" value="" style="edgeStyle=none;orthogonalLoop=1;jettySize=auto;html=1;strokeWidth=2;fontSize=19;rounded=1;labelBackgroundColor=#F1FAEE;strokeColor=#457B9D;fontColor=#1D3557;" parent="g_14Ecix3spJ8cw0UocM-18" edge="1">
          <mxGeometry width="80" relative="1" as="geometry">
            <mxPoint x="232" y="290" as="sourcePoint" />
            <mxPoint x="232" y="323" as="targetPoint" />
            <Array as="points">
              <mxPoint x="231.9999999999999" y="307" />
            </Array>
          </mxGeometry>
        </mxCell>
        <mxCell id="g_14Ecix3spJ8cw0UocM-61" value="" style="edgeStyle=none;orthogonalLoop=1;jettySize=auto;html=1;strokeWidth=2;fontSize=19;rounded=1;exitX=0.803;exitY=0.55;exitDx=0;exitDy=0;exitPerimeter=0;labelBackgroundColor=#F1FAEE;strokeColor=#457B9D;fontColor=#1D3557;" parent="g_14Ecix3spJ8cw0UocM-18" source="g_14Ecix3spJ8cw0UocM-53" edge="1">
          <mxGeometry width="80" relative="1" as="geometry">
            <mxPoint x="288" y="1130" as="sourcePoint" />
            <mxPoint x="304" y="323" as="targetPoint" />
            <Array as="points">
              <mxPoint x="303.9999999999999" y="307" />
            </Array>
          </mxGeometry>
        </mxCell>
        <mxCell id="g_14Ecix3spJ8cw0UocM-62" value="" style="edgeStyle=none;orthogonalLoop=1;jettySize=auto;html=1;strokeWidth=2;fontSize=19;rounded=1;labelBackgroundColor=#F1FAEE;strokeColor=#457B9D;fontColor=#1D3557;" parent="g_14Ecix3spJ8cw0UocM-18" edge="1">
          <mxGeometry width="80" relative="1" as="geometry">
            <mxPoint x="232.32000000000016" y="258" as="sourcePoint" />
            <mxPoint x="232" y="291" as="targetPoint" />
            <Array as="points">
              <mxPoint x="231.9999999999999" y="275" />
            </Array>
          </mxGeometry>
        </mxCell>
        <mxCell id="g_14Ecix3spJ8cw0UocM-63" value="" style="edgeStyle=none;orthogonalLoop=1;jettySize=auto;html=1;strokeWidth=2;fontSize=19;rounded=1;entryX=0.115;entryY=0.15;entryDx=0;entryDy=0;entryPerimeter=0;labelBackgroundColor=#F1FAEE;strokeColor=#457B9D;fontColor=#1D3557;" parent="g_14Ecix3spJ8cw0UocM-18" target="g_14Ecix3spJ8cw0UocM-54" edge="1">
          <mxGeometry width="80" relative="1" as="geometry">
            <mxPoint x="466" y="262" as="sourcePoint" />
            <mxPoint x="431.67999999999984" y="291" as="targetPoint" />
            <Array as="points">
              <mxPoint x="466" y="322" />
              <mxPoint x="504" y="322" />
            </Array>
          </mxGeometry>
        </mxCell>
        <mxCell id="g_14Ecix3spJ8cw0UocM-64" value="" style="line;strokeWidth=4;html=1;shadow=0;glass=0;labelBackgroundColor=none;labelBorderColor=none;fontFamily=Times New Roman;fontSize=18;rounded=1;fillColor=#A8DADC;strokeColor=#457B9D;fontColor=#1D3557;" parent="g_14Ecix3spJ8cw0UocM-18" vertex="1">
          <mxGeometry x="72" y="386" width="136" height="8" as="geometry" />
        </mxCell>
        <mxCell id="g_14Ecix3spJ8cw0UocM-65" value="add customer" style="whiteSpace=wrap;html=1;rounded=1;fillColor=#A8DADC;strokeColor=#457B9D;fontColor=#1D3557;" parent="g_14Ecix3spJ8cw0UocM-18" vertex="1">
          <mxGeometry x="40" y="426" width="72" height="40" as="geometry" />
        </mxCell>
        <mxCell id="g_14Ecix3spJ8cw0UocM-66" value="block customer" style="whiteSpace=wrap;html=1;rounded=1;fillColor=#A8DADC;strokeColor=#457B9D;fontColor=#1D3557;" parent="g_14Ecix3spJ8cw0UocM-18" vertex="1">
          <mxGeometry x="120" y="426" width="56" height="40" as="geometry" />
        </mxCell>
        <mxCell id="g_14Ecix3spJ8cw0UocM-67" value="update customer" style="whiteSpace=wrap;html=1;rounded=1;fillColor=#A8DADC;strokeColor=#457B9D;fontColor=#1D3557;" parent="g_14Ecix3spJ8cw0UocM-18" vertex="1">
          <mxGeometry x="184" y="426" width="64" height="40" as="geometry" />
        </mxCell>
        <mxCell id="g_14Ecix3spJ8cw0UocM-68" value="" style="edgeStyle=none;orthogonalLoop=1;jettySize=auto;html=1;strokeWidth=2;fontSize=19;rounded=1;entryX=0.637;entryY=0.75;entryDx=0;entryDy=0;entryPerimeter=0;exitX=0.594;exitY=0.988;exitDx=0;exitDy=0;exitPerimeter=0;labelBackgroundColor=#F1FAEE;strokeColor=#457B9D;fontColor=#1D3557;" parent="g_14Ecix3spJ8cw0UocM-18" source="g_14Ecix3spJ8cw0UocM-49" target="g_14Ecix3spJ8cw0UocM-64" edge="1">
          <mxGeometry width="80" relative="1" as="geometry">
            <mxPoint x="80" y="1186" as="sourcePoint" />
            <mxPoint x="80" y="1218" as="targetPoint" />
            <Array as="points" />
          </mxGeometry>
        </mxCell>
        <mxCell id="g_14Ecix3spJ8cw0UocM-69" value="" style="edgeStyle=none;orthogonalLoop=1;jettySize=auto;html=1;strokeWidth=2;fontSize=19;rounded=1;exitX=0.05;exitY=0.25;exitDx=0;exitDy=0;exitPerimeter=0;labelBackgroundColor=#F1FAEE;strokeColor=#457B9D;fontColor=#1D3557;" parent="g_14Ecix3spJ8cw0UocM-18" source="g_14Ecix3spJ8cw0UocM-64" edge="1">
          <mxGeometry width="80" relative="1" as="geometry">
            <mxPoint x="56" y="1250" as="sourcePoint" />
            <mxPoint x="79" y="426" as="targetPoint" />
            <Array as="points" />
          </mxGeometry>
        </mxCell>
        <mxCell id="g_14Ecix3spJ8cw0UocM-70" value="" style="edgeStyle=none;orthogonalLoop=1;jettySize=auto;html=1;strokeWidth=2;fontSize=19;rounded=1;entryX=0.269;entryY=-0.013;entryDx=0;entryDy=0;entryPerimeter=0;labelBackgroundColor=#F1FAEE;strokeColor=#457B9D;fontColor=#1D3557;" parent="g_14Ecix3spJ8cw0UocM-18" target="g_14Ecix3spJ8cw0UocM-67" edge="1">
          <mxGeometry width="80" relative="1" as="geometry">
            <mxPoint x="200" y="386" as="sourcePoint" />
            <mxPoint x="189" y="1258" as="targetPoint" />
            <Array as="points" />
          </mxGeometry>
        </mxCell>
        <mxCell id="g_14Ecix3spJ8cw0UocM-71" value="" style="line;strokeWidth=4;html=1;shadow=0;glass=0;labelBackgroundColor=none;labelBorderColor=none;fontFamily=Times New Roman;fontSize=18;rounded=1;fillColor=#A8DADC;strokeColor=#457B9D;fontColor=#1D3557;" parent="g_14Ecix3spJ8cw0UocM-18" vertex="1">
          <mxGeometry x="296" y="386" width="152" height="8" as="geometry" />
        </mxCell>
        <mxCell id="g_14Ecix3spJ8cw0UocM-72" value="add seller" style="whiteSpace=wrap;html=1;rounded=1;fillColor=#A8DADC;strokeColor=#457B9D;fontColor=#1D3557;" parent="g_14Ecix3spJ8cw0UocM-18" vertex="1">
          <mxGeometry x="280" y="426" width="64" height="40" as="geometry" />
        </mxCell>
        <mxCell id="g_14Ecix3spJ8cw0UocM-73" value="block seller" style="whiteSpace=wrap;html=1;rounded=1;fillColor=#A8DADC;strokeColor=#457B9D;fontColor=#1D3557;" parent="g_14Ecix3spJ8cw0UocM-18" vertex="1">
          <mxGeometry x="360" y="426" width="64" height="40" as="geometry" />
        </mxCell>
        <mxCell id="g_14Ecix3spJ8cw0UocM-74" value="update seller" style="whiteSpace=wrap;html=1;rounded=1;fillColor=#A8DADC;strokeColor=#457B9D;fontColor=#1D3557;" parent="g_14Ecix3spJ8cw0UocM-18" vertex="1">
          <mxGeometry x="432" y="426" width="64" height="40" as="geometry" />
        </mxCell>
        <mxCell id="g_14Ecix3spJ8cw0UocM-75" value="" style="edgeStyle=none;orthogonalLoop=1;jettySize=auto;html=1;strokeWidth=2;fontSize=19;rounded=1;exitX=0.024;exitY=0.45;exitDx=0;exitDy=0;exitPerimeter=0;labelBackgroundColor=#F1FAEE;strokeColor=#457B9D;fontColor=#1D3557;" parent="g_14Ecix3spJ8cw0UocM-18" source="g_14Ecix3spJ8cw0UocM-71" edge="1">
          <mxGeometry width="80" relative="1" as="geometry">
            <mxPoint x="288.78999999999996" y="1226" as="sourcePoint" />
            <mxPoint x="300" y="426" as="targetPoint" />
            <Array as="points" />
          </mxGeometry>
        </mxCell>
        <mxCell id="g_14Ecix3spJ8cw0UocM-76" value="" style="edgeStyle=none;orthogonalLoop=1;jettySize=auto;html=1;strokeWidth=2;fontSize=19;rounded=1;labelBackgroundColor=#F1FAEE;strokeColor=#457B9D;fontColor=#1D3557;" parent="g_14Ecix3spJ8cw0UocM-18" edge="1">
          <mxGeometry width="80" relative="1" as="geometry">
            <mxPoint x="384" y="386" as="sourcePoint" />
            <mxPoint x="384" y="426" as="targetPoint" />
            <Array as="points" />
          </mxGeometry>
        </mxCell>
        <mxCell id="g_14Ecix3spJ8cw0UocM-77" value="" style="edgeStyle=none;orthogonalLoop=1;jettySize=auto;html=1;strokeWidth=2;fontSize=19;rounded=1;exitX=0.189;exitY=0.45;exitDx=0;exitDy=0;exitPerimeter=0;entryX=0.406;entryY=0.013;entryDx=0;entryDy=0;entryPerimeter=0;labelBackgroundColor=#F1FAEE;strokeColor=#457B9D;fontColor=#1D3557;" parent="g_14Ecix3spJ8cw0UocM-18" edge="1">
          <mxGeometry width="80" relative="1" as="geometry">
            <mxPoint x="440.78999999999996" y="386" as="sourcePoint" />
            <mxPoint x="439.9979999999996" y="422.8159999999998" as="targetPoint" />
            <Array as="points" />
          </mxGeometry>
        </mxCell>
        <mxCell id="g_14Ecix3spJ8cw0UocM-78" value="" style="edgeStyle=none;orthogonalLoop=1;jettySize=auto;html=1;strokeWidth=2;fontSize=19;rounded=1;entryX=0.406;entryY=0.013;entryDx=0;entryDy=0;entryPerimeter=0;labelBackgroundColor=#F1FAEE;strokeColor=#457B9D;fontColor=#1D3557;" parent="g_14Ecix3spJ8cw0UocM-18" edge="1">
          <mxGeometry width="80" relative="1" as="geometry">
            <mxPoint x="152" y="386" as="sourcePoint" />
            <mxPoint x="151.20799999999986" y="430.8159999999998" as="targetPoint" />
            <Array as="points" />
          </mxGeometry>
        </mxCell>
        <mxCell id="g_14Ecix3spJ8cw0UocM-79" value="unblock seller" style="whiteSpace=wrap;html=1;rounded=1;fillColor=#A8DADC;strokeColor=#457B9D;fontColor=#1D3557;" parent="g_14Ecix3spJ8cw0UocM-18" vertex="1">
          <mxGeometry x="240" y="522" width="64" height="40" as="geometry" />
        </mxCell>
        <mxCell id="g_14Ecix3spJ8cw0UocM-80" value="unblock product" style="whiteSpace=wrap;html=1;rounded=1;fillColor=#A8DADC;strokeColor=#457B9D;fontColor=#1D3557;" parent="g_14Ecix3spJ8cw0UocM-18" vertex="1">
          <mxGeometry x="720" y="650" width="72" height="40" as="geometry" />
        </mxCell>
        <mxCell id="g_14Ecix3spJ8cw0UocM-81" value="unblock customer" style="whiteSpace=wrap;html=1;rounded=1;fillColor=#A8DADC;strokeColor=#457B9D;fontColor=#1D3557;" parent="g_14Ecix3spJ8cw0UocM-18" vertex="1">
          <mxGeometry x="112" y="522" width="72" height="40" as="geometry" />
        </mxCell>
        <mxCell id="g_14Ecix3spJ8cw0UocM-82" value="" style="line;strokeWidth=4;html=1;shadow=0;glass=0;labelBackgroundColor=none;labelBorderColor=none;fontFamily=Times New Roman;fontSize=18;rounded=1;fillColor=#A8DADC;strokeColor=#457B9D;fontColor=#1D3557;" parent="g_14Ecix3spJ8cw0UocM-18" vertex="1">
          <mxGeometry x="112" y="498" width="64" height="8" as="geometry" />
        </mxCell>
        <mxCell id="g_14Ecix3spJ8cw0UocM-83" value="" style="line;strokeWidth=4;html=1;shadow=0;glass=0;labelBackgroundColor=none;labelBorderColor=none;fontFamily=Times New Roman;fontSize=18;rounded=1;fillColor=#A8DADC;strokeColor=#457B9D;fontColor=#1D3557;" parent="g_14Ecix3spJ8cw0UocM-18" vertex="1">
          <mxGeometry x="240" y="490" width="48" height="16" as="geometry" />
        </mxCell>
        <mxCell id="g_14Ecix3spJ8cw0UocM-84" value="" style="line;strokeWidth=4;html=1;shadow=0;glass=0;labelBackgroundColor=none;labelBorderColor=none;fontFamily=Times New Roman;fontSize=18;rounded=1;fillColor=#A8DADC;strokeColor=#457B9D;fontColor=#1D3557;" parent="g_14Ecix3spJ8cw0UocM-18" vertex="1">
          <mxGeometry x="728" y="614" width="56" height="8" as="geometry" />
        </mxCell>
        <mxCell id="g_14Ecix3spJ8cw0UocM-85" value="" style="edgeStyle=none;orthogonalLoop=1;jettySize=auto;html=1;strokeWidth=2;fontSize=19;rounded=1;exitX=-0.006;exitY=0.513;exitDx=0;exitDy=0;exitPerimeter=0;labelBackgroundColor=#F1FAEE;strokeColor=#457B9D;fontColor=#1D3557;" parent="g_14Ecix3spJ8cw0UocM-18" source="g_14Ecix3spJ8cw0UocM-50" target="g_14Ecix3spJ8cw0UocM-82" edge="1">
          <mxGeometry width="80" relative="1" as="geometry">
            <mxPoint x="16" y="1170" as="sourcePoint" />
            <mxPoint x="40.200000000000045" y="1400" as="targetPoint" />
            <Array as="points">
              <mxPoint x="24" y="338" />
              <mxPoint x="24" y="482" />
              <mxPoint x="144" y="482" />
            </Array>
          </mxGeometry>
        </mxCell>
        <mxCell id="g_14Ecix3spJ8cw0UocM-86" value="" style="edgeStyle=none;orthogonalLoop=1;jettySize=auto;html=1;strokeWidth=2;fontSize=19;rounded=1;exitX=0.931;exitY=1.013;exitDx=0;exitDy=0;exitPerimeter=0;labelBackgroundColor=#F1FAEE;strokeColor=#457B9D;fontColor=#1D3557;" parent="g_14Ecix3spJ8cw0UocM-18" source="g_14Ecix3spJ8cw0UocM-52" edge="1">
          <mxGeometry width="80" relative="1" as="geometry">
            <mxPoint x="248" y="1290" as="sourcePoint" />
            <mxPoint x="260" y="498" as="targetPoint" />
            <Array as="points" />
          </mxGeometry>
        </mxCell>
        <mxCell id="g_14Ecix3spJ8cw0UocM-87" value="" style="edgeStyle=none;orthogonalLoop=1;jettySize=auto;html=1;strokeWidth=2;fontSize=19;rounded=1;labelBackgroundColor=#F1FAEE;strokeColor=#457B9D;fontColor=#1D3557;" parent="g_14Ecix3spJ8cw0UocM-18" edge="1">
          <mxGeometry width="80" relative="1" as="geometry">
            <mxPoint x="144" y="506" as="sourcePoint" />
            <mxPoint x="144" y="522" as="targetPoint" />
            <Array as="points">
              <mxPoint x="143.9999999999999" y="515" />
            </Array>
          </mxGeometry>
        </mxCell>
        <mxCell id="g_14Ecix3spJ8cw0UocM-88" value="" style="edgeStyle=none;orthogonalLoop=1;jettySize=auto;html=1;strokeWidth=2;fontSize=19;rounded=1;exitX=0.364;exitY=0.65;exitDx=0;exitDy=0;exitPerimeter=0;entryX=0.394;entryY=0.05;entryDx=0;entryDy=0;entryPerimeter=0;labelBackgroundColor=#F1FAEE;strokeColor=#457B9D;fontColor=#1D3557;" parent="g_14Ecix3spJ8cw0UocM-18" source="g_14Ecix3spJ8cw0UocM-84" target="g_14Ecix3spJ8cw0UocM-80" edge="1">
          <mxGeometry width="80" relative="1" as="geometry">
            <mxPoint x="568" y="1346" as="sourcePoint" />
            <mxPoint x="564" y="1362" as="targetPoint" />
            <Array as="points" />
          </mxGeometry>
        </mxCell>
        <mxCell id="g_14Ecix3spJ8cw0UocM-89" value="" style="edgeStyle=none;orthogonalLoop=1;jettySize=auto;html=1;strokeWidth=2;fontSize=19;rounded=1;entryX=0.35;entryY=0.35;entryDx=0;entryDy=0;entryPerimeter=0;exitX=0.431;exitY=1;exitDx=0;exitDy=0;exitPerimeter=0;labelBackgroundColor=#F1FAEE;strokeColor=#457B9D;fontColor=#1D3557;" parent="g_14Ecix3spJ8cw0UocM-18" source="g_14Ecix3spJ8cw0UocM-56" target="g_14Ecix3spJ8cw0UocM-84" edge="1">
          <mxGeometry width="80" relative="1" as="geometry">
            <mxPoint x="732" y="1242" as="sourcePoint" />
            <mxPoint x="664" y="1314" as="targetPoint" />
            <Array as="points" />
          </mxGeometry>
        </mxCell>
        <mxCell id="g_14Ecix3spJ8cw0UocM-90" value="customer view" style="whiteSpace=wrap;html=1;rounded=1;fillColor=#A8DADC;strokeColor=#457B9D;fontColor=#1D3557;" parent="g_14Ecix3spJ8cw0UocM-18" vertex="1">
          <mxGeometry x="504" y="226" width="80" height="32" as="geometry" />
        </mxCell>
        <mxCell id="g_14Ecix3spJ8cw0UocM-91" value="" style="edgeStyle=none;orthogonalLoop=1;jettySize=auto;html=1;strokeWidth=2;fontSize=19;rounded=1;entryX=0.244;entryY=0.025;entryDx=0;entryDy=0;entryPerimeter=0;labelBackgroundColor=#F1FAEE;strokeColor=#457B9D;fontColor=#1D3557;" parent="g_14Ecix3spJ8cw0UocM-18" target="g_14Ecix3spJ8cw0UocM-56" edge="1">
          <mxGeometry width="80" relative="1" as="geometry">
            <mxPoint x="736" y="512" as="sourcePoint" />
            <mxPoint x="631.9979999999996" y="1158.8159999999998" as="targetPoint" />
            <Array as="points" />
          </mxGeometry>
        </mxCell>
        <mxCell id="g_14Ecix3spJ8cw0UocM-92" value="" style="line;strokeWidth=4;html=1;shadow=0;glass=0;labelBackgroundColor=none;labelBorderColor=none;fontFamily=Times New Roman;fontSize=18;rounded=1;fillColor=#A8DADC;strokeColor=#457B9D;fontColor=#1D3557;" parent="g_14Ecix3spJ8cw0UocM-18" vertex="1">
          <mxGeometry x="504" y="602" width="192" height="8" as="geometry" />
        </mxCell>
        <mxCell id="g_14Ecix3spJ8cw0UocM-93" value="add seller" style="whiteSpace=wrap;html=1;rounded=1;fillColor=#A8DADC;strokeColor=#457B9D;fontColor=#1D3557;" parent="g_14Ecix3spJ8cw0UocM-18" vertex="1">
          <mxGeometry x="504" y="634" width="64" height="40" as="geometry" />
        </mxCell>
        <mxCell id="g_14Ecix3spJ8cw0UocM-94" value="block seller" style="whiteSpace=wrap;html=1;rounded=1;fillColor=#A8DADC;strokeColor=#457B9D;fontColor=#1D3557;" parent="g_14Ecix3spJ8cw0UocM-18" vertex="1">
          <mxGeometry x="576" y="634" width="64" height="40" as="geometry" />
        </mxCell>
        <mxCell id="g_14Ecix3spJ8cw0UocM-95" value="update seller" style="whiteSpace=wrap;html=1;rounded=1;fillColor=#A8DADC;strokeColor=#457B9D;fontColor=#1D3557;" parent="g_14Ecix3spJ8cw0UocM-18" vertex="1">
          <mxGeometry x="648" y="634" width="64" height="40" as="geometry" />
        </mxCell>
        <mxCell id="g_14Ecix3spJ8cw0UocM-96" value="" style="edgeStyle=none;orthogonalLoop=1;jettySize=auto;html=1;strokeWidth=2;fontSize=19;rounded=1;exitX=0.098;exitY=0.75;exitDx=0;exitDy=0;exitPerimeter=0;labelBackgroundColor=#F1FAEE;strokeColor=#457B9D;fontColor=#1D3557;" parent="g_14Ecix3spJ8cw0UocM-18" source="g_14Ecix3spJ8cw0UocM-92" edge="1">
          <mxGeometry width="80" relative="1" as="geometry">
            <mxPoint x="520" y="552" as="sourcePoint" />
            <mxPoint x="523" y="632" as="targetPoint" />
            <Array as="points" />
          </mxGeometry>
        </mxCell>
        <mxCell id="g_14Ecix3spJ8cw0UocM-97" value="" style="edgeStyle=none;orthogonalLoop=1;jettySize=auto;html=1;strokeWidth=2;fontSize=19;rounded=1;exitX=0.906;exitY=0.25;exitDx=0;exitDy=0;exitPerimeter=0;labelBackgroundColor=#F1FAEE;strokeColor=#457B9D;fontColor=#1D3557;" parent="g_14Ecix3spJ8cw0UocM-18" source="g_14Ecix3spJ8cw0UocM-92" edge="1">
          <mxGeometry width="80" relative="1" as="geometry">
            <mxPoint x="640" y="1234" as="sourcePoint" />
            <mxPoint x="678" y="632" as="targetPoint" />
            <Array as="points" />
          </mxGeometry>
        </mxCell>
        <mxCell id="g_14Ecix3spJ8cw0UocM-98" value="" style="edgeStyle=none;orthogonalLoop=1;jettySize=auto;html=1;strokeWidth=2;fontSize=19;rounded=1;entryX=0.637;entryY=0.75;entryDx=0;entryDy=0;entryPerimeter=0;exitX=0.594;exitY=0.988;exitDx=0;exitDy=0;exitPerimeter=0;labelBackgroundColor=#F1FAEE;strokeColor=#457B9D;fontColor=#1D3557;" parent="g_14Ecix3spJ8cw0UocM-18" edge="1">
          <mxGeometry width="80" relative="1" as="geometry">
            <mxPoint x="328" y="354" as="sourcePoint" />
            <mxPoint x="328.616" y="392.384" as="targetPoint" />
            <Array as="points" />
          </mxGeometry>
        </mxCell>
        <mxCell id="g_14Ecix3spJ8cw0UocM-99" value="product request" style="whiteSpace=wrap;html=1;rounded=1;fillColor=#A8DADC;strokeColor=#457B9D;fontColor=#1D3557;" parent="g_14Ecix3spJ8cw0UocM-18" vertex="1">
          <mxGeometry x="600" y="232" width="80" height="32" as="geometry" />
        </mxCell>
        <mxCell id="g_14Ecix3spJ8cw0UocM-100" value="seller request" style="whiteSpace=wrap;html=1;rounded=1;fillColor=#A8DADC;strokeColor=#457B9D;fontColor=#1D3557;" parent="g_14Ecix3spJ8cw0UocM-18" vertex="1">
          <mxGeometry x="688" y="232" width="52" height="28" as="geometry" />
        </mxCell>
        <mxCell id="g_14Ecix3spJ8cw0UocM-101" value="" style="edgeStyle=none;orthogonalLoop=1;jettySize=auto;html=1;strokeWidth=2;fontSize=19;rounded=1;entryX=0.371;entryY=0;entryDx=0;entryDy=0;entryPerimeter=0;exitX=0.759;exitY=0.52;exitDx=0;exitDy=0;exitPerimeter=0;labelBackgroundColor=#F1FAEE;strokeColor=#457B9D;fontColor=#1D3557;" parent="g_14Ecix3spJ8cw0UocM-18" source="g_14Ecix3spJ8cw0UocM-32" target="g_14Ecix3spJ8cw0UocM-99" edge="1">
          <mxGeometry width="80" relative="1" as="geometry">
            <mxPoint x="904" y="1218" as="sourcePoint" />
            <mxPoint x="904.0159999999996" y="1308.8" as="targetPoint" />
            <Array as="points" />
          </mxGeometry>
        </mxCell>
        <mxCell id="g_14Ecix3spJ8cw0UocM-102" value="" style="edgeStyle=none;orthogonalLoop=1;jettySize=auto;html=1;strokeWidth=2;fontSize=19;rounded=1;exitX=0.881;exitY=0.44;exitDx=0;exitDy=0;exitPerimeter=0;labelBackgroundColor=#F1FAEE;strokeColor=#457B9D;fontColor=#1D3557;" parent="g_14Ecix3spJ8cw0UocM-18" source="g_14Ecix3spJ8cw0UocM-32" edge="1">
          <mxGeometry width="80" relative="1" as="geometry">
            <mxPoint x="920" y="194" as="sourcePoint" />
            <mxPoint x="726" y="232" as="targetPoint" />
            <Array as="points" />
          </mxGeometry>
        </mxCell>
        <mxCell id="g_14Ecix3spJ8cw0UocM-103" value="&lt;b&gt;accepted&lt;/b&gt;" style="text;html=1;align=center;verticalAlign=middle;resizable=0;points=[];autosize=1;fontColor=#1D3557;" parent="g_14Ecix3spJ8cw0UocM-18" vertex="1">
          <mxGeometry x="620" y="278" width="72" height="32" as="geometry" />
        </mxCell>
        <mxCell id="g_14Ecix3spJ8cw0UocM-104" value="delete from databse" style="whiteSpace=wrap;html=1;rounded=1;fillColor=#A8DADC;strokeColor=#457B9D;fontColor=#1D3557;" parent="g_14Ecix3spJ8cw0UocM-18" vertex="1">
          <mxGeometry x="648" y="342" width="80" height="32" as="geometry" />
        </mxCell>
        <mxCell id="g_14Ecix3spJ8cw0UocM-105" value="&lt;b&gt;rejected&lt;/b&gt;" style="text;html=1;align=center;verticalAlign=middle;resizable=0;points=[];autosize=1;fontColor=#1D3557;" parent="g_14Ecix3spJ8cw0UocM-18" vertex="1">
          <mxGeometry x="632" y="310" width="64" height="32" as="geometry" />
        </mxCell>
        <mxCell id="g_14Ecix3spJ8cw0UocM-106" value="" style="endArrow=classic;html=1;rounded=1;strokeWidth=2;entryX=0.625;entryY=0.062;entryDx=0;entryDy=0;exitX=0.5;exitY=1;exitDx=0;exitDy=0;entryPerimeter=0;labelBackgroundColor=#F1FAEE;strokeColor=#457B9D;fontColor=#1D3557;" parent="g_14Ecix3spJ8cw0UocM-18" source="g_14Ecix3spJ8cw0UocM-124" target="g_14Ecix3spJ8cw0UocM-104" edge="1">
          <mxGeometry width="50" height="50" relative="1" as="geometry">
            <mxPoint x="726" y="310" as="sourcePoint" />
            <mxPoint x="706" y="352" as="targetPoint" />
            <Array as="points">
              <mxPoint x="696" y="322" />
            </Array>
          </mxGeometry>
        </mxCell>
        <mxCell id="g_14Ecix3spJ8cw0UocM-107" value="" style="edgeStyle=none;orthogonalLoop=1;jettySize=auto;html=1;strokeWidth=2;fontSize=19;rounded=1;entryX=0.964;entryY=0.25;entryDx=0;entryDy=0;entryPerimeter=0;labelBackgroundColor=#F1FAEE;strokeColor=#457B9D;fontColor=#1D3557;" parent="g_14Ecix3spJ8cw0UocM-18" target="g_14Ecix3spJ8cw0UocM-23" edge="1">
          <mxGeometry width="80" relative="1" as="geometry">
            <mxPoint x="754" y="692" as="sourcePoint" />
            <mxPoint x="754.2399999999998" y="750.4000000000001" as="targetPoint" />
            <Array as="points" />
          </mxGeometry>
        </mxCell>
        <mxCell id="g_14Ecix3spJ8cw0UocM-108" value="" style="edgeStyle=none;orthogonalLoop=1;jettySize=auto;html=1;strokeWidth=2;fontSize=19;rounded=1;entryX=0.466;entryY=0.15;entryDx=0;entryDy=0;entryPerimeter=0;labelBackgroundColor=#F1FAEE;strokeColor=#457B9D;fontColor=#1D3557;" parent="g_14Ecix3spJ8cw0UocM-18" source="g_14Ecix3spJ8cw0UocM-73" target="g_14Ecix3spJ8cw0UocM-23" edge="1">
          <mxGeometry width="80" relative="1" as="geometry">
            <mxPoint x="360" y="1330" as="sourcePoint" />
            <mxPoint x="390.3040000000001" y="748" as="targetPoint" />
            <Array as="points" />
          </mxGeometry>
        </mxCell>
        <mxCell id="g_14Ecix3spJ8cw0UocM-109" value="" style="edgeStyle=none;orthogonalLoop=1;jettySize=auto;html=1;strokeWidth=2;fontSize=19;rounded=1;labelBackgroundColor=#F1FAEE;strokeColor=#457B9D;fontColor=#1D3557;" parent="g_14Ecix3spJ8cw0UocM-18" edge="1">
          <mxGeometry width="80" relative="1" as="geometry">
            <mxPoint x="457.5799999999999" y="466" as="sourcePoint" />
            <mxPoint x="456" y="702" as="targetPoint" />
            <Array as="points" />
          </mxGeometry>
        </mxCell>
        <mxCell id="g_14Ecix3spJ8cw0UocM-110" value="" style="edgeStyle=none;orthogonalLoop=1;jettySize=auto;html=1;strokeWidth=2;fontSize=19;rounded=1;exitX=0.475;exitY=0.95;exitDx=0;exitDy=0;exitPerimeter=0;entryX=0.662;entryY=0.35;entryDx=0;entryDy=0;entryPerimeter=0;labelBackgroundColor=#F1FAEE;strokeColor=#457B9D;fontColor=#1D3557;" parent="g_14Ecix3spJ8cw0UocM-18" source="g_14Ecix3spJ8cw0UocM-93" target="g_14Ecix3spJ8cw0UocM-23" edge="1">
          <mxGeometry width="80" relative="1" as="geometry">
            <mxPoint x="536" y="682" as="sourcePoint" />
            <mxPoint x="536" y="702" as="targetPoint" />
            <Array as="points" />
          </mxGeometry>
        </mxCell>
        <mxCell id="g_14Ecix3spJ8cw0UocM-111" value="" style="edgeStyle=none;orthogonalLoop=1;jettySize=auto;html=1;strokeWidth=2;fontSize=19;rounded=1;labelBackgroundColor=#F1FAEE;strokeColor=#457B9D;fontColor=#1D3557;" parent="g_14Ecix3spJ8cw0UocM-18" edge="1">
          <mxGeometry width="80" relative="1" as="geometry">
            <mxPoint x="598" y="672" as="sourcePoint" />
            <mxPoint x="596" y="702" as="targetPoint" />
            <Array as="points" />
          </mxGeometry>
        </mxCell>
        <mxCell id="g_14Ecix3spJ8cw0UocM-112" value="" style="edgeStyle=none;orthogonalLoop=1;jettySize=auto;html=1;strokeWidth=2;fontSize=19;rounded=1;entryX=0.85;entryY=0.15;entryDx=0;entryDy=0;entryPerimeter=0;labelBackgroundColor=#F1FAEE;strokeColor=#457B9D;fontColor=#1D3557;" parent="g_14Ecix3spJ8cw0UocM-18" target="g_14Ecix3spJ8cw0UocM-23" edge="1">
          <mxGeometry width="80" relative="1" as="geometry">
            <mxPoint x="672" y="672" as="sourcePoint" />
            <mxPoint x="666" y="712" as="targetPoint" />
            <Array as="points" />
          </mxGeometry>
        </mxCell>
        <mxCell id="g_14Ecix3spJ8cw0UocM-113" value="" style="edgeStyle=none;orthogonalLoop=1;jettySize=auto;html=1;strokeWidth=2;fontSize=19;rounded=1;labelBackgroundColor=#F1FAEE;strokeColor=#457B9D;fontColor=#1D3557;" parent="g_14Ecix3spJ8cw0UocM-18" edge="1">
          <mxGeometry width="80" relative="1" as="geometry">
            <mxPoint x="321.5799999999999" y="466" as="sourcePoint" />
            <mxPoint x="322" y="702" as="targetPoint" />
            <Array as="points" />
          </mxGeometry>
        </mxCell>
        <mxCell id="g_14Ecix3spJ8cw0UocM-114" value="" style="edgeStyle=none;orthogonalLoop=1;jettySize=auto;html=1;strokeWidth=2;fontSize=19;rounded=1;entryX=0.225;entryY=0.55;entryDx=0;entryDy=0;entryPerimeter=0;labelBackgroundColor=#F1FAEE;strokeColor=#457B9D;fontColor=#1D3557;" parent="g_14Ecix3spJ8cw0UocM-18" target="g_14Ecix3spJ8cw0UocM-23" edge="1">
          <mxGeometry width="80" relative="1" as="geometry">
            <mxPoint x="209.57999999999993" y="466" as="sourcePoint" />
            <mxPoint x="207.99631788079478" y="748" as="targetPoint" />
            <Array as="points" />
          </mxGeometry>
        </mxCell>
        <mxCell id="g_14Ecix3spJ8cw0UocM-115" value="" style="edgeStyle=none;orthogonalLoop=1;jettySize=auto;html=1;strokeWidth=2;fontSize=19;rounded=1;entryX=0.046;entryY=0.25;entryDx=0;entryDy=0;entryPerimeter=0;labelBackgroundColor=#F1FAEE;strokeColor=#457B9D;fontColor=#1D3557;" parent="g_14Ecix3spJ8cw0UocM-18" target="g_14Ecix3spJ8cw0UocM-23" edge="1">
          <mxGeometry width="80" relative="1" as="geometry">
            <mxPoint x="81.57999999999993" y="466" as="sourcePoint" />
            <mxPoint x="79.99631788079478" y="748" as="targetPoint" />
            <Array as="points" />
          </mxGeometry>
        </mxCell>
        <mxCell id="g_14Ecix3spJ8cw0UocM-116" value="" style="edgeStyle=none;orthogonalLoop=1;jettySize=auto;html=1;strokeWidth=2;fontSize=19;rounded=1;labelBackgroundColor=#F1FAEE;strokeColor=#457B9D;fontColor=#1D3557;" parent="g_14Ecix3spJ8cw0UocM-18" edge="1">
          <mxGeometry width="80" relative="1" as="geometry">
            <mxPoint x="152" y="562" as="sourcePoint" />
            <mxPoint x="152" y="702" as="targetPoint" />
            <Array as="points" />
          </mxGeometry>
        </mxCell>
        <mxCell id="g_14Ecix3spJ8cw0UocM-117" value="" style="edgeStyle=none;orthogonalLoop=1;jettySize=auto;html=1;strokeWidth=2;fontSize=19;rounded=1;labelBackgroundColor=#F1FAEE;strokeColor=#457B9D;fontColor=#1D3557;" parent="g_14Ecix3spJ8cw0UocM-18" edge="1">
          <mxGeometry width="80" relative="1" as="geometry">
            <mxPoint x="273.5799999999999" y="562" as="sourcePoint" />
            <mxPoint x="274" y="702" as="targetPoint" />
            <Array as="points" />
          </mxGeometry>
        </mxCell>
        <mxCell id="g_14Ecix3spJ8cw0UocM-118" value="" style="edgeStyle=none;orthogonalLoop=1;jettySize=auto;html=1;strokeWidth=2;fontSize=19;rounded=1;startArrow=none;exitX=0.461;exitY=1.013;exitDx=0;exitDy=0;exitPerimeter=0;labelBackgroundColor=#F1FAEE;strokeColor=#457B9D;fontColor=#1D3557;" parent="g_14Ecix3spJ8cw0UocM-18" edge="1">
          <mxGeometry width="80" relative="1" as="geometry">
            <mxPoint x="421.69000000000005" y="750" as="sourcePoint" />
            <mxPoint x="421.49800000000005" y="773.5839999999998" as="targetPoint" />
            <Array as="points" />
          </mxGeometry>
        </mxCell>
        <mxCell id="g_14Ecix3spJ8cw0UocM-119" value="" style="edgeStyle=none;orthogonalLoop=1;jettySize=auto;html=1;strokeWidth=2;fontSize=19;exitX=0.465;exitY=0.994;exitDx=0;exitDy=0;exitPerimeter=0;entryX=0.287;entryY=0.46;entryDx=0;entryDy=0;entryPerimeter=0;rounded=1;labelBackgroundColor=#F1FAEE;strokeColor=#457B9D;fontColor=#1D3557;" parent="g_14Ecix3spJ8cw0UocM-18" edge="1">
          <mxGeometry width="80" relative="1" as="geometry">
            <mxPoint x="48" y="154" as="sourcePoint" />
            <mxPoint x="48.72000000000003" y="190.79199999999992" as="targetPoint" />
            <Array as="points" />
          </mxGeometry>
        </mxCell>
        <mxCell id="g_14Ecix3spJ8cw0UocM-120" value="" style="edgeStyle=none;orthogonalLoop=1;jettySize=auto;html=1;strokeWidth=2;fontSize=19;rounded=1;exitX=0.475;exitY=0.375;exitDx=0;exitDy=0;exitPerimeter=0;labelBackgroundColor=#F1FAEE;strokeColor=#457B9D;fontColor=#1D3557;" parent="g_14Ecix3spJ8cw0UocM-18" source="g_14Ecix3spJ8cw0UocM-83" edge="1">
          <mxGeometry width="80" relative="1" as="geometry">
            <mxPoint x="264" y="506" as="sourcePoint" />
            <mxPoint x="264" y="522" as="targetPoint" />
            <Array as="points">
              <mxPoint x="263.9999999999999" y="515" />
            </Array>
          </mxGeometry>
        </mxCell>
        <mxCell id="g_14Ecix3spJ8cw0UocM-121" value="" style="edgeStyle=none;orthogonalLoop=1;jettySize=auto;html=1;strokeWidth=2;fontSize=19;rounded=1;labelBackgroundColor=#F1FAEE;strokeColor=#457B9D;fontColor=#1D3557;" parent="g_14Ecix3spJ8cw0UocM-18" edge="1">
          <mxGeometry width="80" relative="1" as="geometry">
            <mxPoint x="544" y="186" as="sourcePoint" />
            <mxPoint x="544" y="226" as="targetPoint" />
            <Array as="points">
              <mxPoint x="543.6800000000001" y="219" />
            </Array>
          </mxGeometry>
        </mxCell>
        <mxCell id="g_14Ecix3spJ8cw0UocM-122" value="" style="edgeStyle=none;orthogonalLoop=1;jettySize=auto;html=1;strokeWidth=2;fontSize=19;rounded=1;exitX=0.548;exitY=0.65;exitDx=0;exitDy=0;exitPerimeter=0;labelBackgroundColor=#F1FAEE;strokeColor=#457B9D;fontColor=#1D3557;" parent="g_14Ecix3spJ8cw0UocM-18" source="g_14Ecix3spJ8cw0UocM-92" target="g_14Ecix3spJ8cw0UocM-94" edge="1">
          <mxGeometry width="80" relative="1" as="geometry">
            <mxPoint x="586" y="562" as="sourcePoint" />
            <mxPoint x="604" y="582" as="targetPoint" />
            <Array as="points" />
          </mxGeometry>
        </mxCell>
        <mxCell id="g_14Ecix3spJ8cw0UocM-123" value="" style="edgeStyle=none;orthogonalLoop=1;jettySize=auto;html=1;strokeWidth=2;fontSize=19;rounded=1;exitX=0.5;exitY=1;exitDx=0;exitDy=0;labelBackgroundColor=#F1FAEE;strokeColor=#457B9D;fontColor=#1D3557;" parent="g_14Ecix3spJ8cw0UocM-18" source="g_14Ecix3spJ8cw0UocM-55" edge="1">
          <mxGeometry width="80" relative="1" as="geometry">
            <mxPoint x="626" y="562" as="sourcePoint" />
            <mxPoint x="536" y="602" as="targetPoint" />
            <Array as="points" />
          </mxGeometry>
        </mxCell>
        <mxCell id="g_14Ecix3spJ8cw0UocM-124" value="" style="rhombus;whiteSpace=wrap;html=1;rounded=1;arcSize=50;fillColor=#A8DADC;strokeColor=#457B9D;fontColor=#1D3557;" parent="g_14Ecix3spJ8cw0UocM-18" vertex="1">
          <mxGeometry x="688" y="290" width="18" height="24" as="geometry" />
        </mxCell>
        <mxCell id="g_14Ecix3spJ8cw0UocM-125" value="" style="edgeStyle=none;orthogonalLoop=1;jettySize=auto;html=1;strokeWidth=2;fontSize=19;rounded=1;entryX=0.5;entryY=0;entryDx=0;entryDy=0;labelBackgroundColor=#F1FAEE;strokeColor=#457B9D;fontColor=#1D3557;" parent="g_14Ecix3spJ8cw0UocM-18" target="g_14Ecix3spJ8cw0UocM-124" edge="1">
          <mxGeometry width="80" relative="1" as="geometry">
            <mxPoint x="696" y="262" as="sourcePoint" />
            <mxPoint x="724" y="302" as="targetPoint" />
            <Array as="points" />
          </mxGeometry>
        </mxCell>
        <mxCell id="g_14Ecix3spJ8cw0UocM-126" value="" style="edgeStyle=none;orthogonalLoop=1;jettySize=auto;html=1;strokeWidth=2;fontSize=19;rounded=1;entryX=0.85;entryY=0.012;entryDx=0;entryDy=0;entryPerimeter=0;labelBackgroundColor=#F1FAEE;strokeColor=#457B9D;fontColor=#1D3557;" parent="g_14Ecix3spJ8cw0UocM-18" target="g_14Ecix3spJ8cw0UocM-51" edge="1">
          <mxGeometry width="80" relative="1" as="geometry">
            <mxPoint x="686" y="302" as="sourcePoint" />
            <mxPoint x="625.6800000000003" y="415" as="targetPoint" />
            <Array as="points">
              <mxPoint x="576" y="302" />
              <mxPoint x="336" y="302" />
            </Array>
          </mxGeometry>
        </mxCell>
        <mxCell id="g_14Ecix3spJ8cw0UocM-127" value="" style="rhombus;whiteSpace=wrap;html=1;rounded=1;arcSize=50;fillColor=#A8DADC;strokeColor=#457B9D;fontColor=#1D3557;" parent="g_14Ecix3spJ8cw0UocM-18" vertex="1">
          <mxGeometry x="606" y="310" width="18" height="24" as="geometry" />
        </mxCell>
        <mxCell id="g_14Ecix3spJ8cw0UocM-128" value="" style="edgeStyle=none;orthogonalLoop=1;jettySize=auto;html=1;strokeWidth=2;fontSize=19;rounded=1;exitX=0.165;exitY=1.075;exitDx=0;exitDy=0;exitPerimeter=0;labelBackgroundColor=#F1FAEE;strokeColor=#457B9D;fontColor=#1D3557;" parent="g_14Ecix3spJ8cw0UocM-18" source="g_14Ecix3spJ8cw0UocM-99" edge="1">
          <mxGeometry width="80" relative="1" as="geometry">
            <mxPoint x="576" y="292" as="sourcePoint" />
            <mxPoint x="613" y="312" as="targetPoint" />
            <Array as="points" />
          </mxGeometry>
        </mxCell>
        <mxCell id="g_14Ecix3spJ8cw0UocM-129" value="" style="endArrow=classic;html=1;rounded=1;strokeWidth=2;exitX=0.5;exitY=1;exitDx=0;exitDy=0;labelBackgroundColor=#F1FAEE;strokeColor=#457B9D;fontColor=#1D3557;" parent="g_14Ecix3spJ8cw0UocM-18" source="g_14Ecix3spJ8cw0UocM-127" edge="1">
          <mxGeometry width="50" height="50" relative="1" as="geometry">
            <mxPoint x="624" y="322" as="sourcePoint" />
            <mxPoint x="616" y="382" as="targetPoint" />
            <Array as="points" />
          </mxGeometry>
        </mxCell>
        <mxCell id="g_14Ecix3spJ8cw0UocM-130" value="delete from databse" style="whiteSpace=wrap;html=1;rounded=1;fillColor=#A8DADC;strokeColor=#457B9D;fontColor=#1D3557;" parent="g_14Ecix3spJ8cw0UocM-18" vertex="1">
          <mxGeometry x="560" y="385" width="80" height="32" as="geometry" />
        </mxCell>
        <mxCell id="g_14Ecix3spJ8cw0UocM-131" value="" style="edgeStyle=none;orthogonalLoop=1;jettySize=auto;html=1;strokeWidth=2;fontSize=19;rounded=1;entryX=0.5;entryY=0;entryDx=0;entryDy=0;exitX=0;exitY=0.5;exitDx=0;exitDy=0;labelBackgroundColor=#F1FAEE;strokeColor=#457B9D;fontColor=#1D3557;" parent="g_14Ecix3spJ8cw0UocM-18" source="g_14Ecix3spJ8cw0UocM-127" target="g_14Ecix3spJ8cw0UocM-55" edge="1">
          <mxGeometry width="80" relative="1" as="geometry">
            <mxPoint x="596" y="402" as="sourcePoint" />
            <mxPoint x="213.20000000000005" y="422.384" as="targetPoint" />
            <Array as="points">
              <mxPoint x="536" y="322" />
            </Array>
          </mxGeometry>
        </mxCell>
        <mxCell id="g_14Ecix3spJ8cw0UocM-132" value="&lt;b&gt;rejected&lt;/b&gt;" style="text;html=1;align=center;verticalAlign=middle;resizable=0;points=[];autosize=1;fontColor=#1D3557;" parent="g_14Ecix3spJ8cw0UocM-18" vertex="1">
          <mxGeometry x="546" y="342" width="64" height="32" as="geometry" />
        </mxCell>
        <mxCell id="g_14Ecix3spJ8cw0UocM-133" value="&lt;b&gt;accepted&lt;/b&gt;" style="text;html=1;align=center;verticalAlign=middle;resizable=0;points=[];autosize=1;fontColor=#1D3557;" parent="g_14Ecix3spJ8cw0UocM-18" vertex="1">
          <mxGeometry x="534" y="298" width="72" height="32" as="geometry" />
        </mxCell>
        <mxCell id="g_14Ecix3spJ8cw0UocM-134" value="" style="edgeStyle=none;orthogonalLoop=1;jettySize=auto;html=1;strokeWidth=2;fontSize=19;rounded=1;entryX=0.335;entryY=0.25;entryDx=0;entryDy=0;entryPerimeter=0;exitX=0.25;exitY=1;exitDx=0;exitDy=0;labelBackgroundColor=#F1FAEE;strokeColor=#457B9D;fontColor=#1D3557;" parent="g_14Ecix3spJ8cw0UocM-18" source="g_14Ecix3spJ8cw0UocM-130" target="g_14Ecix3spJ8cw0UocM-54" edge="1">
          <mxGeometry width="80" relative="1" as="geometry">
            <mxPoint x="666" y="402" as="sourcePoint" />
            <mxPoint x="666" y="502" as="targetPoint" />
            <Array as="points" />
          </mxGeometry>
        </mxCell>
        <mxCell id="g_14Ecix3spJ8cw0UocM-135" value="" style="edgeStyle=none;orthogonalLoop=1;jettySize=auto;html=1;strokeWidth=2;fontSize=19;rounded=1;exitX=0.125;exitY=0.987;exitDx=0;exitDy=0;exitPerimeter=0;labelBackgroundColor=#F1FAEE;strokeColor=#457B9D;fontColor=#1D3557;" parent="g_14Ecix3spJ8cw0UocM-18" source="g_14Ecix3spJ8cw0UocM-104" edge="1">
          <mxGeometry width="80" relative="1" as="geometry">
            <mxPoint x="756" y="422" as="sourcePoint" />
            <mxPoint x="658" y="502" as="targetPoint" />
            <Array as="points" />
          </mxGeometry>
        </mxCell>
        <mxCell id="g_14Ecix3spJ8cw0UocM-136" value="add report category" style="whiteSpace=wrap;html=1;rounded=1;arcSize=19;fillColor=#A8DADC;strokeColor=#457B9D;fontColor=#1D3557;" parent="g_14Ecix3spJ8cw0UocM-18" vertex="1">
          <mxGeometry x="360" y="310" width="70" height="40" as="geometry" />
        </mxCell>
        <mxCell id="g_14Ecix3spJ8cw0UocM-137" value="" style="edgeStyle=none;orthogonalLoop=1;jettySize=auto;html=1;strokeWidth=2;fontSize=19;rounded=1;exitX=0.75;exitY=1;exitDx=0;exitDy=0;entryX=0.383;entryY=-0.03;entryDx=0;entryDy=0;entryPerimeter=0;labelBackgroundColor=#F1FAEE;strokeColor=#457B9D;fontColor=#1D3557;" parent="g_14Ecix3spJ8cw0UocM-18" source="g_14Ecix3spJ8cw0UocM-33" target="g_14Ecix3spJ8cw0UocM-136" edge="1">
          <mxGeometry width="80" relative="1" as="geometry">
            <mxPoint x="396" y="272" as="sourcePoint" />
            <mxPoint x="396" y="305" as="targetPoint" />
            <Array as="points" />
          </mxGeometry>
        </mxCell>
        <mxCell id="g_14Ecix3spJ8cw0UocM-138" value="" style="edgeStyle=none;orthogonalLoop=1;jettySize=auto;html=1;strokeWidth=2;fontSize=19;rounded=1;labelBackgroundColor=#F1FAEE;strokeColor=#457B9D;fontColor=#1D3557;" parent="g_14Ecix3spJ8cw0UocM-18" edge="1">
          <mxGeometry width="80" relative="1" as="geometry">
            <mxPoint x="405" y="352" as="sourcePoint" />
            <mxPoint x="404.5" y="387" as="targetPoint" />
            <Array as="points">
              <mxPoint x="404.4999999999999" y="371" />
            </Array>
          </mxGeometry>
        </mxCell>
        <mxCell id="g_14Ecix3spJ8cw0UocM-139" value="" style="edgeStyle=none;orthogonalLoop=1;jettySize=auto;html=1;strokeWidth=2;fontSize=19;rounded=1;entryX=0.158;entryY=0.35;entryDx=0;entryDy=0;entryPerimeter=0;labelBackgroundColor=#F1FAEE;strokeColor=#457B9D;fontColor=#1D3557;" parent="g_14Ecix3spJ8cw0UocM-18" target="g_14Ecix3spJ8cw0UocM-54" edge="1">
          <mxGeometry width="80" relative="1" as="geometry">
            <mxPoint x="520" y="262" as="sourcePoint" />
            <mxPoint x="526" y="315" as="targetPoint" />
            <Array as="points" />
          </mxGeometry>
        </mxCell>
        <mxCell id="g_14Ecix3spJ8cw0UocM-140" value="logout" style="whiteSpace=wrap;html=1;rounded=1;fillColor=#A8DADC;strokeColor=#457B9D;fontColor=#1D3557;" parent="g_14Ecix3spJ8cw0UocM-18" vertex="1">
          <mxGeometry x="384" y="732" width="80" height="20" as="geometry" />
        </mxCell>
        <mxCell id="g_14Ecix3spJ8cw0UocM-141" value="" style="edgeStyle=none;orthogonalLoop=1;jettySize=auto;html=1;strokeWidth=2;fontSize=19;rounded=1;startArrow=none;exitX=0.461;exitY=1.013;exitDx=0;exitDy=0;exitPerimeter=0;labelBackgroundColor=#F1FAEE;strokeColor=#457B9D;fontColor=#1D3557;" parent="g_14Ecix3spJ8cw0UocM-18" edge="1">
          <mxGeometry width="80" relative="1" as="geometry">
            <mxPoint x="424.19" y="710" as="sourcePoint" />
            <mxPoint x="423.998" y="733.5839999999998" as="targetPoint" />
            <Array as="points" />
          </mxGeometry>
        </mxCell>
        <mxCell id="p_IL2DqyqRA-ms2kH8pK-14" value="report product" style="whiteSpace=wrap;html=1;rounded=1;fillColor=#A8DADC;strokeColor=#457B9D;fontColor=#1D3557;" parent="g_14Ecix3spJ8cw0UocM-18" vertex="1">
          <mxGeometry x="746" y="230" width="52" height="28" as="geometry" />
        </mxCell>
        <mxCell id="p_IL2DqyqRA-ms2kH8pK-15" value="" style="edgeStyle=none;orthogonalLoop=1;jettySize=auto;html=1;strokeWidth=2;fontSize=19;rounded=1;exitX=0.881;exitY=0.44;exitDx=0;exitDy=0;exitPerimeter=0;labelBackgroundColor=#F1FAEE;strokeColor=#457B9D;fontColor=#1D3557;" parent="g_14Ecix3spJ8cw0UocM-18" edge="1">
          <mxGeometry width="80" relative="1" as="geometry">
            <mxPoint x="771.5" y="188.39999999999998" as="sourcePoint" />
            <mxPoint x="772.2240000000002" y="229.9999999999999" as="targetPoint" />
            <Array as="points" />
          </mxGeometry>
        </mxCell>
        <mxCell id="p_IL2DqyqRA-ms2kH8pK-16" value="" style="edgeStyle=none;orthogonalLoop=1;jettySize=auto;html=1;strokeWidth=2;fontSize=19;rounded=1;exitX=0.881;exitY=0.44;exitDx=0;exitDy=0;exitPerimeter=0;entryX=0.683;entryY=0.55;entryDx=0;entryDy=0;entryPerimeter=0;labelBackgroundColor=#F1FAEE;strokeColor=#457B9D;fontColor=#1D3557;" parent="g_14Ecix3spJ8cw0UocM-18" target="p_IL2DqyqRA-ms2kH8pK-17" edge="1">
          <mxGeometry width="80" relative="1" as="geometry">
            <mxPoint x="771.5" y="260" as="sourcePoint" />
            <mxPoint x="772.2240000000002" y="301.5999999999999" as="targetPoint" />
            <Array as="points" />
          </mxGeometry>
        </mxCell>
        <mxCell id="p_IL2DqyqRA-ms2kH8pK-17" value="" style="line;strokeWidth=4;html=1;shadow=0;glass=0;labelBackgroundColor=none;labelBorderColor=none;fontFamily=Times New Roman;fontSize=18;rounded=1;fillColor=#A8DADC;strokeColor=#457B9D;fontColor=#1D3557;" parent="g_14Ecix3spJ8cw0UocM-18" vertex="1">
          <mxGeometry x="706" y="386" width="96" height="8" as="geometry" />
        </mxCell>
        <mxCell id="p_IL2DqyqRA-ms2kH8pK-18" value="seller request" style="whiteSpace=wrap;html=1;rounded=1;fillColor=#A8DADC;strokeColor=#457B9D;fontColor=#1D3557;" parent="g_14Ecix3spJ8cw0UocM-18" vertex="1">
          <mxGeometry x="676" y="442" width="52" height="28" as="geometry" />
        </mxCell>
        <mxCell id="p_IL2DqyqRA-ms2kH8pK-19" value="report product" style="whiteSpace=wrap;html=1;rounded=1;fillColor=#A8DADC;strokeColor=#457B9D;fontColor=#1D3557;" parent="g_14Ecix3spJ8cw0UocM-18" vertex="1">
          <mxGeometry x="746" y="442" width="52" height="28" as="geometry" />
        </mxCell>
        <mxCell id="p_IL2DqyqRA-ms2kH8pK-20" value="" style="edgeStyle=none;orthogonalLoop=1;jettySize=auto;html=1;strokeWidth=2;fontSize=19;rounded=1;labelBackgroundColor=#F1FAEE;strokeColor=#457B9D;fontColor=#1D3557;" parent="g_14Ecix3spJ8cw0UocM-18" edge="1">
          <mxGeometry width="80" relative="1" as="geometry">
            <mxPoint x="713" y="390" as="sourcePoint" />
            <mxPoint x="712.7240000000002" y="441.9999999999999" as="targetPoint" />
            <Array as="points" />
          </mxGeometry>
        </mxCell>
        <mxCell id="p_IL2DqyqRA-ms2kH8pK-21" value="" style="edgeStyle=none;orthogonalLoop=1;jettySize=auto;html=1;strokeWidth=2;fontSize=19;rounded=1;exitX=0.683;exitY=0.25;exitDx=0;exitDy=0;exitPerimeter=0;labelBackgroundColor=#F1FAEE;strokeColor=#457B9D;fontColor=#1D3557;" parent="g_14Ecix3spJ8cw0UocM-18" source="p_IL2DqyqRA-ms2kH8pK-17" edge="1">
          <mxGeometry width="80" relative="1" as="geometry">
            <mxPoint x="771.5" y="400.4" as="sourcePoint" />
            <mxPoint x="772.2240000000002" y="441.9999999999999" as="targetPoint" />
            <Array as="points" />
          </mxGeometry>
        </mxCell>
        <mxCell id="g_14Ecix3spJ8cw0UocM-143" value="authentication" style="whiteSpace=wrap;html=1;rounded=1;fillColor=#A8DADC;strokeColor=#457B9D;fontColor=#1D3557;" parent="1" vertex="1">
          <mxGeometry x="488" y="-1040" width="80" height="32" as="geometry" />
        </mxCell>
        <mxCell id="g_14Ecix3spJ8cw0UocM-144" value="" style="rhombus;whiteSpace=wrap;html=1;rounded=1;fillColor=#A8DADC;strokeColor=#457B9D;fontColor=#1D3557;" parent="1" vertex="1">
          <mxGeometry x="512" y="-984" width="16" height="16" as="geometry" />
        </mxCell>
        <mxCell id="g_14Ecix3spJ8cw0UocM-145" value="" style="endArrow=classic;html=1;exitX=0.415;exitY=1.019;exitDx=0;exitDy=0;exitPerimeter=0;rounded=1;labelBackgroundColor=#F1FAEE;strokeColor=#457B9D;fontColor=#1D3557;" parent="1" source="g_14Ecix3spJ8cw0UocM-143" edge="1">
          <mxGeometry width="50" height="50" relative="1" as="geometry">
            <mxPoint x="504" y="-1008" as="sourcePoint" />
            <mxPoint x="520" y="-982" as="targetPoint" />
            <Array as="points" />
          </mxGeometry>
        </mxCell>
        <mxCell id="g_14Ecix3spJ8cw0UocM-146" value="" style="endArrow=classic;html=1;strokeWidth=2;fontFamily=Times New Roman;fontSize=18;rounded=1;labelBackgroundColor=#F1FAEE;strokeColor=#457B9D;fontColor=#1D3557;" parent="1" edge="1">
          <mxGeometry width="50" height="50" relative="1" as="geometry">
            <mxPoint x="520" y="-968" as="sourcePoint" />
            <mxPoint x="520" y="-864" as="targetPoint" />
          </mxGeometry>
        </mxCell>
        <mxCell id="g_14Ecix3spJ8cw0UocM-147" value="valid" style="text;html=1;align=center;verticalAlign=middle;resizable=0;points=[];autosize=1;strokeColor=none;fillColor=none;rounded=1;fontColor=#1D3557;" parent="1" vertex="1">
          <mxGeometry x="520" y="-952" width="48" height="32" as="geometry" />
        </mxCell>
        <mxCell id="g_14Ecix3spJ8cw0UocM-148" value="invalid" style="text;html=1;align=center;verticalAlign=middle;resizable=0;points=[];autosize=1;strokeColor=none;fillColor=none;rounded=1;fontColor=#1D3557;" parent="1" vertex="1">
          <mxGeometry x="432" y="-1008" width="56" height="32" as="geometry" />
        </mxCell>
        <mxCell id="g_14Ecix3spJ8cw0UocM-149" value="" style="edgeStyle=segmentEdgeStyle;endArrow=classic;html=1;entryX=0.436;entryY=0.044;entryDx=0;entryDy=0;entryPerimeter=0;rounded=1;strokeWidth=2;labelBackgroundColor=#F1FAEE;strokeColor=#457B9D;fontColor=#1D3557;" parent="1" target="g_14Ecix3spJ8cw0UocM-4" edge="1">
          <mxGeometry width="50" height="50" relative="1" as="geometry">
            <mxPoint x="432" y="-1056" as="sourcePoint" />
            <mxPoint x="64" y="-1072" as="targetPoint" />
            <Array as="points">
              <mxPoint x="112" y="-1056" />
            </Array>
          </mxGeometry>
        </mxCell>
        <mxCell id="g_14Ecix3spJ8cw0UocM-151" value="" style="edgeStyle=segmentEdgeStyle;endArrow=none;html=1;rounded=1;strokeWidth=2;entryX=0.5;entryY=1;entryDx=0;entryDy=0;labelBackgroundColor=#F1FAEE;strokeColor=#457B9D;fontColor=#1D3557;" parent="1" target="g_14Ecix3spJ8cw0UocM-5" edge="1">
          <mxGeometry width="50" height="50" relative="1" as="geometry">
            <mxPoint x="427" y="-1056" as="sourcePoint" />
            <mxPoint x="512" y="-1056" as="targetPoint" />
            <Array as="points" />
          </mxGeometry>
        </mxCell>
        <mxCell id="g_14Ecix3spJ8cw0UocM-153" value="&lt;b&gt;&lt;font style=&quot;font-size: 14px;&quot;&gt;Activity Diagram of Ecommerce Sysem&lt;/font&gt;&lt;/b&gt;" style="text;html=1;align=center;verticalAlign=middle;resizable=0;points=[];autosize=1;strokeColor=none;fillColor=none;fontColor=#1D3557;" parent="1" vertex="1">
          <mxGeometry x="16" y="-1160" width="280" height="40" as="geometry" />
        </mxCell>
        <mxCell id="g_14Ecix3spJ8cw0UocM-154" value="" style="ellipse;html=1;shape=endState;fillColor=#A8DADC;strokeColor=#457B9D;fontColor=#1D3557;" parent="1" vertex="1">
          <mxGeometry x="416" y="-50" width="16" height="24" as="geometry" />
        </mxCell>
        <mxCell id="g_14Ecix3spJ8cw0UocM-155" value="" style="edgeStyle=none;orthogonalLoop=1;jettySize=auto;html=1;strokeWidth=2;fontSize=19;rounded=1;exitX=0.167;exitY=0.85;exitDx=0;exitDy=0;exitPerimeter=0;labelBackgroundColor=#F1FAEE;strokeColor=#457B9D;fontColor=#1D3557;" parent="1" source="g_14Ecix3spJ8cw0UocM-54" edge="1">
          <mxGeometry width="80" relative="1" as="geometry">
            <mxPoint x="520" y="-310" as="sourcePoint" />
            <mxPoint x="527" y="-280" as="targetPoint" />
            <Array as="points" />
          </mxGeometry>
        </mxCell>
      </root>
    </mxGraphModel>
  </diagram>
</mxfile>
